<svg xmlns="http://www.w3.org/2000/svg" viewBox="0 0 1800 900">
  <defs><filter id="sh" x="-30%" y="-30%" width="160%" height="160%"><feDropShadow dx="9" dy="11" stdDeviation="7" flood-opacity=".2"/></filter></defs>
  <rect width="1800" height="900" fill="#f4c95d"/>
  <text x="900" y="82" text-anchor="middle" font-family="Arial" font-size="66" font-weight="900" fill="#17130f">EL CANDIDATO EJEMPLAR</text>
  <g transform="translate(690 140)" filter="url(#sh)" stroke="#17130f" stroke-linecap="round" stroke-linejoin="round">
    <circle cx="210" cy="150" r="118" fill="#fff" stroke-width="14"/>
    <path d="M125 132 Q170 82 218 125 M226 118 Q274 72 312 128" fill="none" stroke-width="11"/>
    <circle cx="175" cy="153" r="13" fill="#17130f" stroke="none"/><circle cx="255" cy="151" r="13" fill="#17130f" stroke="none"/>
    <path d="M153 198 Q210 248 272 187" fill="none" stroke-width="11"/>
    <path d="M105 300 Q210 230 315 300 L345 650 Q210 715 75 650 Z" fill="#303944" stroke-width="15"/>
    <path d="M175 310 L210 360 L245 310 L275 345 L230 395 H190 L145 345 Z" fill="#fff8e8" stroke-width="9"/>
    <path d="M198 360 L220 360 L250 505 L211 545 L172 505 Z" fill="#e84a3c" stroke-width="8"/>
    <path d="M92 365 Q5 425 45 550" fill="none" stroke-width="29"/>
    <path d="M328 365 Q425 410 397 540" fill="none" stroke-width="29"/>
    <circle cx="45" cy="550" r="34" fill="#fff" stroke-width="10"/><circle cx="397" cy="540" r="34" fill="#fff" stroke-width="10"/>
    <path d="M47 548 Q125 470 177 500" fill="none" stroke-width="18"/>
    <path d="M145 650 L130 805 M275 650 L290 805" stroke-width="28"/>
    <path d="M85 825 Q132 787 180 825 M245 825 Q292 787 340 825" fill="#17130f" stroke-width="9"/>
    <rect x="45" y="448" width="215" height="105" rx="18" fill="#fff8e8" stroke-width="9" transform="rotate(-5 152 500)"/>
    <text x="152" y="493" text-anchor="middle" font-family="Arial" font-size="28" font-weight="900" fill="#17130f" stroke="none" transform="rotate(-5 152 500)">VENGO A SERVIR</text>
    <text x="152" y="528" text-anchor="middle" font-family="Arial" font-size="28" font-weight="900" fill="#17130f" stroke="none" transform="rotate(-5 152 500)">AL PUEBLO</text>
  </g>
  <g filter="url(#sh)" font-family="Arial" font-weight="900" text-anchor="middle">
    <g transform="translate(90 190)"><rect width="420" height="150" rx="26" fill="#fff8e8" stroke="#17130f" stroke-width="10"/><circle cx="65" cy="75" r="34" fill="#79b84a" stroke="#17130f" stroke-width="8"/><text x="255" y="95" font-size="44" fill="#17130f">PUEBLO</text></g>
    <g transform="translate(70 410)"><rect width="440" height="150" rx="26" fill="#fff8e8" stroke="#17130f" stroke-width="10"/><circle cx="65" cy="75" r="34" fill="#f2b84b" stroke="#17130f" stroke-width="8"/><text x="265" y="95" font-size="44" fill="#17130f">FUTURO</text></g>
    <g transform="translate(40 630)"><rect width="500" height="150" rx="26" fill="#fff8e8" stroke="#17130f" stroke-width="10"/><circle cx="65" cy="75" r="34" fill="#59a9d8" stroke="#17130f" stroke-width="8"/><text x="300" y="95" font-size="38" fill="#17130f">TRANSPARENCIA</text></g>
    <g transform="translate(1290 190)"><rect width="440" height="150" rx="26" fill="#fff8e8" stroke="#17130f" stroke-width="10"/><circle cx="375" cy="75" r="34" fill="#79b84a" stroke="#17130f" stroke-width="8"/><text x="190" y="95" font-size="42" fill="#17130f">DESARROLLO</text></g>
    <g transform="translate(1310 410)"><rect width="420" height="150" rx="26" fill="#fff8e8" stroke="#17130f" stroke-width="10"/><circle cx="355" cy="75" r="34" fill="#e84a3c" stroke="#17130f" stroke-width="8"/><text x="180" y="95" font-size="44" fill="#17130f">CAMBIO</text></g>
    <g transform="translate(1310 630)"><rect width="420" height="150" rx="26" fill="#fff8e8" stroke="#17130f" stroke-width="10"/><circle cx="355" cy="75" r="34" fill="#7454c8" stroke="#17130f" stroke-width="8"/><text x="180" y="95" font-size="44" fill="#17130f">JUSTICIA</text></g>
  </g>
  <g stroke="#17130f" stroke-width="8" fill="none" stroke-linecap="round" opacity=".9">
    <path d="M540 260 C620 260 650 285 700 330"/><path d="M540 480 C620 470 650 450 700 420"/><path d="M540 700 C620 660 650 610 700 540"/>
    <path d="M1260 260 C1180 260 1145 285 1100 330"/><path d="M1290 480 C1190 470 1150 450 1100 420"/><path d="M1290 700 C1185 660 1140 610 1100 540"/>
  </g>
</svg>