<svg xmlns="http://www.w3.org/2000/svg" viewBox="0 0 1200 1000">
  <defs>
    <linearGradient id="suit" x1="0" y1="0" x2="1" y2="1"><stop stop-color="#46515f"/><stop offset="1" stop-color="#222831"/></linearGradient>
    <linearGradient id="skin" x1="0" y1="0" x2="0" y2="1"><stop stop-color="#fffdf7"/><stop offset="1" stop-color="#eee7dd"/></linearGradient>
    <linearGradient id="case" x1="0" y1="0" x2="1" y2="1"><stop stop-color="#8b5a35"/><stop offset="1" stop-color="#4f301d"/></linearGradient>
    <filter id="shadow" x="-30%" y="-30%" width="160%" height="160%"><feDropShadow dx="14" dy="18" stdDeviation="10" flood-opacity=".22"/></filter>
  </defs>
  <ellipse cx="650" cy="930" rx="430" ry="45" fill="#000" opacity=".09"/>
  <g filter="url(#shadow)" stroke="#15120f" stroke-linecap="round" stroke-linejoin="round">
    <circle cx="610" cy="205" r="145" fill="url(#skin)" stroke-width="16"/>
    <path d="M480 182 Q535 118 595 158" fill="none" stroke-width="13"/>
    <path d="M643 153 Q713 103 759 166" fill="none" stroke-width="13"/>
    <ellipse cx="557" cy="203" rx="39" ry="48" fill="#fff" stroke-width="10"/>
    <ellipse cx="688" cy="200" rx="39" ry="48" fill="#fff" stroke-width="10"/>
    <circle cx="574" cy="211" r="16" fill="#15120f" stroke="none"/>
    <circle cx="705" cy="207" r="16" fill="#15120f" stroke="none"/>
    <path d="M626 210 q-32 55 13 56" fill="none" stroke-width="10"/>
    <path d="M516 282 Q618 360 725 259" fill="none" stroke-width="14"/>
    <path d="M528 301 Q621 353 704 286" fill="none" stroke="#d8433e" stroke-width="7"/>
    <path d="M514 339 Q610 297 706 339 L768 655 Q613 725 452 655 Z" fill="url(#suit)" stroke-width="16"/>
    <path d="M541 350 L610 456 L679 350 L720 386 L652 493 L569 493 L500 386 Z" fill="#fffdf7" stroke-width="10"/>
    <path d="M600 407 L628 407 L665 579 L615 628 L568 579 Z" fill="#e83f35" stroke-width="10"/>
    <path d="M468 405 Q360 432 338 587" fill="none" stroke-width="34"/>
    <path d="M750 409 Q875 430 888 594" fill="none" stroke-width="34"/>
    <circle cx="340" cy="590" r="38" fill="url(#skin)" stroke-width="12"/>
    <circle cx="887" cy="594" r="38" fill="url(#skin)" stroke-width="12"/>
    <path d="M335 593 Q390 541 459 555" fill="none" stroke-width="22"/>
    <rect x="355" y="522" width="170" height="86" rx="12" fill="#8fc64d" stroke-width="10"/>
    <path d="M386 541 H494 M386 568 H494 M386 595 H494" stroke="#4f7829" stroke-width="6"/>
    <circle cx="441" cy="566" r="24" fill="#b7dc76" stroke-width="6"/>
    <text x="441" y="579" text-anchor="middle" font-family="Arial" font-size="35" font-weight="900" fill="#15120f" stroke="none">$</text>
    <path d="M535 657 L515 892" stroke-width="34"/>
    <path d="M688 657 L708 892" stroke-width="34"/>
    <path d="M457 910 Q518 866 568 914" fill="#15120f" stroke-width="10"/>
    <path d="M656 914 Q712 865 770 912" fill="#15120f" stroke-width="10"/>
  </g>
  <g transform="translate(690 560)" filter="url(#shadow)" stroke="#15120f" stroke-linejoin="round">
    <path d="M175 35 Q305 -28 430 35 V110 H175 Z" fill="none" stroke-width="18"/>
    <rect x="40" y="98" width="520" height="350" rx="38" fill="url(#case)" stroke-width="18"/>
    <path d="M40 210 Q300 70 560 210 V330 Q300 430 40 330 Z" fill="#3f2718" stroke-width="14"/>
    <g fill="#9ccd55" stroke-width="8">
      <rect x="85" y="205" width="105" height="60" rx="8"/><rect x="205" y="205" width="105" height="60" rx="8"/><rect x="325" y="205" width="105" height="60" rx="8"/><rect x="445" y="205" width="75" height="60" rx="8"/>
      <rect x="85" y="280" width="105" height="60" rx="8"/><rect x="205" y="280" width="105" height="60" rx="8"/><rect x="325" y="280" width="105" height="60" rx="8"/><rect x="445" y="280" width="75" height="60" rx="8"/>
    </g>
    <g font-family="Arial" font-size="34" font-weight="900" text-anchor="middle" fill="#15120f" stroke="none">
      <text x="138" y="246">$</text><text x="258" y="246">$</text><text x="378" y="246">$</text><text x="482" y="246">$</text>
      <text x="138" y="321">$</text><text x="258" y="321">$</text><text x="378" y="321">$</text><text x="482" y="321">$</text>
    </g>
    <rect x="245" y="405" width="110" height="70" rx="10" fill="#f2b84b" stroke-width="12"/>
  </g>
  <g fill="none" stroke="#15120f" stroke-width="10" stroke-linecap="round">
    <path d="M330 500 q-35 18 -48 54"/><path d="M915 516 q55 4 80 48"/><path d="M990 500 l22 -18"/><path d="M1008 540 h32"/>
  </g>
</svg>